<svg width="1600" height="1601" viewBox="0 0 1600 1601" fill="none" xmlns="http://www.w3.org/2000/svg">
<circle cx="800" cy="800" r="800" fill="#1E1F29"/>
<path d="M700.717 1095.88L895.108 1142.44L872.557 870.023L700.871 884.237L700.717 1095.88Z" fill="#F3A3A6"/>
<path d="M839.769 948.018C944.28 948.018 1029 863.292 1029 758.778C1029 654.263 944.28 569.537 839.769 569.537C735.258 569.537 650.535 654.263 650.535 758.778C650.535 863.292 735.258 948.018 839.769 948.018Z" fill="#F3A3A6"/>
<path d="M1039.5 1562.69C1037.98 1563.2 1036.49 1563.67 1034.98 1564.13C1034.55 1564.26 1034.11 1564.41 1033.67 1564.54C1017.64 1569.52 1001.37 1573.95 984.928 1577.91C924.92 1592.38 862.243 1600.02 797.823 1600.02C779.71 1600.02 761.751 1599.43 743.972 1598.22C725.782 1597.02 707.772 1595.2 689.967 1592.76C682.733 1591.79 675.549 1590.73 668.391 1589.55C647.995 1586.24 627.83 1582.11 607.973 1577.26C601.277 1575.65 594.606 1573.93 587.961 1572.08C585.678 1571.49 583.395 1570.85 581.137 1570.21C571.773 1567.57 562.46 1564.77 553.224 1561.77C552.608 1561.59 551.967 1561.38 551.351 1561.18C543.09 1558.51 534.88 1555.69 526.722 1552.74C519.384 1550.09 512.098 1547.32 504.838 1544.45C488.701 1538.09 472.846 1531.21 457.247 1523.82L463.25 1496.63L484.057 1402.42L529.236 1197.73L574.903 990.891L694.893 994.226H694.944L700.794 994.406L883.281 999.485L963.12 1001.72L1039.5 1562.69Z" fill="#DADBDC"/>
<path d="M1218.21 1480.31C1194.04 1495.37 1168.98 1509.15 1143.17 1521.56C1136.78 1524.64 1130.32 1527.62 1123.83 1530.54C1122.67 1531.06 1121.54 1531.57 1120.39 1532.06C1114.8 1534.55 1109.18 1536.96 1103.51 1539.29L1100.97 1540.37C1099.48 1540.98 1097.99 1541.6 1096.48 1542.19C1077.83 1549.73 1058.84 1556.61 1039.52 1562.69C1038.01 1563.2 1036.52 1563.67 1035.01 1564.13L867.631 1135.85L856.317 1106.93L824.761 1026.14L814.293 999.382L883.383 1000.46L963.146 1001.72C1035.55 1010.98 1095.58 1062.21 1116.13 1132.23L1218.24 1480.31L1218.21 1480.31Z" fill="#DADBDC"/>
<path d="M707.028 845.239C713.75 844.11 720.472 842.956 727.193 841.827C728.784 805.883 732.248 765.782 759.16 741.896C773.989 728.734 795.437 721.063 802.8 702.642C808.906 687.376 803.21 668.622 811.728 654.562C820.682 639.758 840.693 637.116 857.985 636.038C885.051 634.371 912.605 632.729 938.953 639.143C965.301 645.582 990.726 661.438 1001.96 686.119C1005.43 693.713 1007.43 701.898 1009.43 710.005C1016.18 737.432 1026.52 789.616 1026.52 789.616C1026.52 789.616 1028.52 778.815 1034.21 757.803C1045.83 741.178 1060.02 725.835 1066.85 706.747C1075.06 683.759 1071.44 658.077 1063.38 635.063C1045.09 582.699 1002.66 538.442 949.806 521.612C896.93 504.807 846.927 495.288 807.418 534.234C800.004 541.546 793.333 549.705 784.867 555.76C769.217 566.972 749.231 569.794 731.581 577.542C692.302 594.783 656.795 636.244 647.944 678.217C639.093 720.191 643.711 763.678 648.38 806.344C652.408 843.136 669.879 884.16 700.512 904.941C701.769 886.11 703.026 867.304 704.283 848.472L707.003 845.265L707.028 845.239Z" fill="#2F2E43"/>
<path d="M811.779 1022.16L809.932 1025.19L758.262 1109.65L681.655 1234.96L666.133 1260.33L609.537 1352.9C609.537 1352.9 591.168 1378.73 560.176 1411.86L560.074 1411.96C548.811 1423.97 535.906 1436.92 521.616 1449.93C521.514 1450.06 521.411 1450.16 521.283 1450.24C503.837 1466.15 484.339 1482.13 463.25 1496.63C454.579 1502.6 445.651 1508.3 436.517 1513.64C434.644 1512.71 432.797 1511.74 430.95 1510.79C343.157 1465.2 264.908 1403.78 200 1330.3C267.756 1222.08 401.831 1100.72 488.213 1028.45C537.086 987.529 602.379 972.109 664.363 986.939L694.893 994.225L700.794 995.636L811.779 1022.16Z" fill="#DADBDC"/>
<path d="M1052.84 996.124C1019.56 984.143 931.487 984.091 891.978 997.433C884.307 1000.02 879.663 1007.82 880.997 1015.8L882.562 1025.27C879.125 1024.76 875.764 1023.78 872.582 1022.32C863.167 1018.01 844.618 1012.16 825.889 1021.5C812.805 1028.01 803.595 1040.3 800.362 1054.59C792.64 1088.77 812.113 1107.68 812.113 1107.68L838.05 1132.03C859.78 1152.4 883.486 1170.56 908.808 1186.21L909.321 1186.52L900.085 1130.95C894.877 1140.11 883.101 1143.11 874.147 1137.57C851.519 1123.56 814.55 1095.49 819.039 1063.63C822.169 1041.41 834.51 1036.69 846.362 1037.69C859.626 1038.82 871.197 1047.15 876.867 1059.19C878.226 1062.06 880.458 1064.42 883.229 1065.96L889.9 1069.6L909.449 1187.39C910.321 1192.68 913.708 1197.24 918.506 1199.6C964.48 1222.16 1014.1 1210.46 1031.26 1205.2C1035.19 1203.99 1038.55 1201.4 1040.65 1197.86L1044.35 1191.73C1045.63 1189.62 1046.4 1187.24 1046.65 1184.8L1063.72 1013.36C1064.46 1005.8 1059.97 998.715 1052.81 996.124L1052.84 996.124Z" fill="#4CFFA9"/>
<path d="M973.177 1012.52C1015.87 1012.52 1050.48 1009.26 1050.48 1005.23C1050.48 1001.21 1015.87 997.945 973.177 997.945C930.486 997.945 895.877 1001.21 895.877 1005.23C895.877 1009.26 930.486 1012.52 973.177 1012.52Z" fill="#DEDFE0"/>
<path d="M818.758 1151.27C860.704 1119.17 877.303 1070.91 855.83 1043.49C834.382 1016.06 782.994 1019.83 741.022 1051.95C724.089 1064.55 710.543 1081.12 701.589 1100.29L525.696 1238.55L595.53 1322.09L761.52 1176.9C782.532 1173.13 802.159 1164.33 818.732 1151.27H818.758Z" fill="#F3A3A6"/>
<path d="M702.385 1271.39L632.807 1149.01L379.614 1268.16L521.283 1450.27L702.385 1271.39Z" fill="#DADBDC"/>
<path opacity="0.1" d="M550.632 1187.67C550.632 1187.67 366.067 1322.8 372.892 1322.06C379.716 1321.32 470.716 1271.26 470.716 1271.26L550.632 1187.67Z" fill="#272223"/>
</svg>
