<?xml version="1.0" encoding="UTF-8" standalone="no"?>
<svg
   width="1600"
   height="1600"
   viewBox="0 0 1600 1600"
   fill="none"
   version="1.1"
   id="svg32"
   sodipodi:docname="persona2.svg"
   inkscape:version="1.2.2 (b0a8486541, 2022-12-01)"
   xmlns:inkscape="http://www.inkscape.org/namespaces/inkscape"
   xmlns:sodipodi="http://sodipodi.sourceforge.net/DTD/sodipodi-0.dtd"
   xmlns="http://www.w3.org/2000/svg"
   xmlns:svg="http://www.w3.org/2000/svg">
  <defs
     id="defs36" />
  <sodipodi:namedview
     id="namedview34"
     pagecolor="#ffffff"
     bordercolor="#000000"
     borderopacity="0.25"
     inkscape:showpageshadow="2"
     inkscape:pageopacity="0.0"
     inkscape:pagecheckerboard="0"
     inkscape:deskcolor="#d1d1d1"
     showgrid="false"
     inkscape:zoom="0.501875"
     inkscape:cx="799.00374"
     inkscape:cy="800"
     inkscape:window-width="1920"
     inkscape:window-height="1026"
     inkscape:window-x="0"
     inkscape:window-y="30"
     inkscape:window-maximized="1"
     inkscape:current-layer="svg32" />
  <circle
     cx="800"
     cy="800"
     r="800"
     fill="#1E1F29"
     id="circle2" />
  <path
     d="M732.216 458.716C732.216 458.716 591.701 474.572 582.645 692.162C575.102 873.475 559.658 974.535 633.417 1012.35C659.791 1025.87 690.783 1027.05 718.952 1017.82L1020.07 918.809C1020.07 918.809 1024.61 592.436 920.347 513.107C816.084 433.778 732.242 458.716 732.242 458.716H732.216Z"
     fill="#2F2E41"
     id="path4" />
  <path
     d="M898.207 958.884L745.813 1008.99V789.63H884.071L898.207 958.884Z"
     fill="#F6A6A9"
     id="path6" />
  <path
     d="m 1103.5,1543.644 c -20.52,8.31 -41.46,15.78 -62.78,22.35 -16.03,4.97 -32.3,9.41 -48.743,13.36 -60.008,14.47 -122.684,22.12 -187.104,22.12 -18.113,0 -36.072,-0.59 -53.851,-1.8 -18.19,-1.2 -36.2,-3.02 -54.005,-5.46 -7.235,-0.98 -14.418,-2.03 -21.576,-3.21 -20.396,-3.31 -40.561,-7.44 -60.419,-12.29 -6.696,-1.61 -13.366,-3.33 -20.011,-5.18 -2.283,-0.59 -4.566,-1.23 -6.824,-1.87 -9.364,-2.65 -18.677,-5.44 -27.913,-8.44 -0.616,-0.18 -1.257,-0.39 -1.873,-0.59 -8.261,-2.67 -16.471,-5.49 -24.629,-8.44 -7.338,-2.65 -14.624,-5.42 -21.884,-8.29 l 158.319,-521.11 6.594,-21.67 23.397,-76.999 0.18,-0.616 0.18,-0.564 h 276.488 l 1.847,9.005 45.337,221.774 32.66,159.84 32.12,157.09 13.21,64.65 z"
     fill="#dddedf"
     id="path8" />
  <path
     d="m 742.578,929.85511 -18.6,77.04099 -2.592,10.81 -1.359,5.61 -82.508,342.03 -50.926,211.1 c -9.364,-2.65 -18.677,-5.44 -27.913,-8.44 -0.616,-0.18 -1.257,-0.39 -1.873,-0.59 -8.261,-2.67 -16.471,-5.49 -24.629,-8.44 -7.338,-2.65 -14.624,-5.42 -21.884,-8.29 -25.297,-9.98 -49.951,-21.25 -73.888,-33.66 53.44,-264.52 107.086,-524.59599 115.809,-546.37799 3.822,-9.57 14.521,-16.907 29.016,-22.552 4.182,-1.642 8.697,-3.13 13.443,-4.49 31.12,-8.877 72.656,-12.135 103.802,-13.29 h 0.308 c 12.417,-0.436 23.167,-0.564 30.915,-0.564 7.748,0 12.879,0.128 12.879,0.128 z"
     fill="#dddedf"
     id="path10" />
  <path
     d="M764.67 850.358C848.537 850.358 916.525 782.368 916.525 698.499C916.525 614.629 848.537 546.64 764.67 546.64C680.803 546.64 612.816 614.629 612.816 698.499C612.816 782.368 680.803 850.358 764.67 850.358Z"
     fill="#F6A6A9"
     id="path12" />
  <path
     d="M723.16 515.391C723.16 515.391 639.6 854.694 732.524 1013.35L601.63 985.541C601.63 985.541 550.91 614.142 652.916 546.64L723.186 515.391H723.16Z"
     fill="#2F2E41"
     id="path14" />
  <path
     opacity="0.1"
     d="M697.017 1592.62C689.782 1591.64 682.599 1590.59 675.441 1589.41C655.045 1586.1 634.88 1581.97 615.022 1577.12C608.326 1575.51 601.656 1573.79 595.011 1571.94L603.554 1506.41L626.362 1331.36L636.624 1369.28L646.065 1404.2L697.017 1592.62Z"
     fill="#272223"
     id="path16" />
  <path
     opacity="0.1"
     d="M1127.44 1531.92C1121.84 1534.41 1116.23 1536.82 1110.56 1539.15C1109.71 1539.51 1108.86 1539.87 1108.02 1540.23C1106.53 1540.84 1105.04 1541.46 1103.53 1542.05C1083 1550.36 1062.07 1557.83 1040.75 1564.4C990.104 1528.56 951.082 1478.63 928.557 1420.8L916.55 1389.99L839.635 1167.19L1010.04 1345.99L1041.18 1395.3L1089.03 1471.03L1127.46 1531.89H1127.44V1531.92Z"
     fill="#272223"
     id="path18" />
  <path
     d="M1294.25 1432.09C1249.76 1466.72 1201.53 1496.74 1150.22 1521.42C1143.83 1524.5 1137.37 1527.48 1130.88 1530.4C1129.72 1530.92 1128.59 1531.43 1127.44 1531.92C1121.84 1534.41 1116.23 1536.82 1110.56 1539.15C1107.76 1538.07 1104.99 1536.92 1102.24 1535.71C1074.1 1523.4 1048.96 1504.67 1026.77 1482.78C996.954 1453.31 972.53 1418.05 953.366 1384.75C943.924 1368.36 935.766 1352.43 928.865 1337.9L928.762 1337.67C910.162 1298.34 900.952 1269.4 900.952 1269.4L876.194 1167.73L869.395 1139.84L830.707 981.077L816.648 923.351L837.634 922.427L894.974 919.913L958.215 917.116C972.787 918.219 987 920.939 1000.67 925.198C1044.57 938.667 1082.75 967.454 1107.81 1007.07C1176.72 1116.03 1287.07 1308.22 1294.27 1432.09H1294.25Z"
     fill="#DDDEDF"
     id="path20" />
  <path
     d="M573.743 852.616C607.018 840.635 695.093 840.583 734.602 853.925C742.273 856.516 746.917 864.315 745.583 872.295L744.018 881.762C747.456 881.249 750.816 880.274 753.998 878.811C763.413 874.501 781.962 868.651 800.691 877.99C813.775 884.507 822.985 896.796 826.218 911.087C833.94 945.261 814.468 964.17 814.468 964.17L788.53 988.517C766.8 1008.89 743.094 1027.05 717.772 1042.7L717.259 1043.01L726.495 987.44C731.703 996.599 743.479 999.601 752.433 994.059C775.061 980.051 812.03 951.983 807.541 920.118C804.411 897.899 792.07 893.179 780.218 894.179C766.954 895.308 755.383 903.646 749.713 915.679C748.354 918.553 746.122 920.913 743.351 922.452L736.68 926.096L717.131 1043.88C716.259 1049.17 712.872 1053.74 708.075 1056.1C662.1 1078.65 612.482 1066.95 595.319 1061.69C591.394 1060.48 588.033 1057.89 585.929 1054.35L582.235 1048.22C580.952 1046.12 580.182 1043.73 579.926 1041.29L562.865 869.857C562.121 862.289 566.611 855.207 573.768 852.616H573.743Z"
     fill="#4CFFA9"
     id="path22" />
  <path
     d="M730.677 861.724C730.677 865.752 696.068 869.01 653.377 869.01C610.687 869.01 576.078 865.752 576.078 861.724C576.078 857.696 610.687 854.438 653.377 854.438C696.068 854.438 730.677 857.696 730.677 861.724Z"
     fill="#DEDFE0"
     id="path24" />
  <path
     d="M768.057 1022.64C738.964 980.821 737.912 931.638 765.697 912.755C793.481 893.872 839.559 912.447 868.652 954.292C880.505 970.84 888.047 990.031 890.664 1010.27L1011.55 1189.02L922.836 1245.21L813.082 1063.05C794.892 1053.4 779.448 1039.55 768.057 1022.67V1022.64Z"
     fill="#F6A6A9"
     id="path26" />
  <path
     d="M839.61 1167.21L939.512 1075.26L1137.03 1259.19L953.34 1384.75L839.61 1167.21Z"
     fill="#DDDEDF"
     id="path28" />
  <path
     opacity="0.1"
     d="M1119.59 1284.69L1127.44 1345.01L1075.1 1284.69V1223.86L1119.59 1284.69Z"
     fill="#272223"
     id="path30" />
</svg>
